<svg width="311" height="311" viewBox="0 0 311 311" xmlns="http://www.w3.org/2000/svg"><path d="M107.7 0h95.6c37.5 0 51 3.9 64.7 11.2A76.3 76.3 0 0 1 299.8 43C307 56.7 311 70.2 311 107.7v95.6c0 37.5-3.9 51-11.2 64.7a76.3 76.3 0 0 1-31.8 31.8c-13.7 7.3-27.2 11.2-64.7 11.2h-95.6c-37.5 0-51-3.9-64.7-11.2A76.3 76.3 0 0 1 11.2 268C4 254.3 0 240.8 0 203.3v-95.6c0-37.5 3.9-51 11.2-64.7A76.3 76.3 0 0 1 43 11.2C56.7 4 70.2 0 107.7 0zm101.9 130.7h-5.1v-25.5A50.5 50.5 0 0 0 153.7 55c-28 0-50.7 22.6-50.6 50.3v25.4h-1.8c-9.6 0-17.4 7.8-17.4 17.3v75.7c0 9.6 7.8 17.3 17.4 17.3h108.2c9.6 0 17.4-7.8 17.4-17.3v-75.8c0-9.5-7.8-17.2-17.4-17.2zm-87.6.3v-25.3A31.9 31.9 0 0 1 154 74c17.6 0 32 14.2 32 31.6V131h-64z" fill="#DD4949" fill-rule="evenodd"/></svg>
